<svg id="visual" viewBox="0 0 900 600" width="900" height="600" xmlns="http://www.w3.org/2000/svg" xmlns:xlink="http://www.w3.org/1999/xlink" version="1.1"><rect x="0" y="0" width="900" height="600" fill="#111827"></rect><g transform="translate(409.77368503746135 311.4633991151599)"><path d="M134.1 -209.6C201.6 -165.4 303.2 -175.1 338.8 -141.7C374.4 -108.2 344.1 -31.5 317.5 34.6C290.8 100.8 267.8 156.5 224.8 180.6C181.8 204.8 118.8 197.4 58.3 229.2C-2.3 261 -60.3 332 -99.7 326.4C-139.1 320.8 -159.9 238.7 -194.7 179.4C-229.6 120 -278.6 83.6 -274.3 45.7C-270 7.9 -212.3 -31.4 -172.9 -62.9C-133.5 -94.4 -112.4 -118.2 -86.6 -181.4C-60.8 -244.6 -30.4 -347.3 1.5 -349.6C33.3 -351.9 66.7 -253.8 134.1 -209.6" fill="#1f2937"></path></g></svg>