<svg id="visual" viewBox="0 0 900 675" width="900" height="675" xmlns="http://www.w3.org/2000/svg" xmlns:xlink="http://www.w3.org/1999/xlink" version="1.1"><rect x="0" y="0" width="900" height="675" fill="#e5e7eb"></rect><defs><linearGradient id="grad1_0" x1="25%" y1="0%" x2="100%" y2="100%"><stop offset="23.333333333333336%" stop-color="#0066ff" stop-opacity="1"></stop><stop offset="76.66666666666666%" stop-color="#0066ff" stop-opacity="1"></stop></linearGradient></defs><defs><linearGradient id="grad1_1" x1="25%" y1="0%" x2="100%" y2="100%"><stop offset="23.333333333333336%" stop-color="#0066ff" stop-opacity="1"></stop><stop offset="76.66666666666666%" stop-color="#87a9fb" stop-opacity="1"></stop></linearGradient></defs><defs><linearGradient id="grad1_2" x1="25%" y1="0%" x2="100%" y2="100%"><stop offset="23.333333333333336%" stop-color="#e5e7eb" stop-opacity="1"></stop><stop offset="76.66666666666666%" stop-color="#87a9fb" stop-opacity="1"></stop></linearGradient></defs><defs><linearGradient id="grad2_0" x1="0%" y1="0%" x2="75%" y2="100%"><stop offset="23.333333333333336%" stop-color="#0066ff" stop-opacity="1"></stop><stop offset="76.66666666666666%" stop-color="#0066ff" stop-opacity="1"></stop></linearGradient></defs><defs><linearGradient id="grad2_1" x1="0%" y1="0%" x2="75%" y2="100%"><stop offset="23.333333333333336%" stop-color="#87a9fb" stop-opacity="1"></stop><stop offset="76.66666666666666%" stop-color="#0066ff" stop-opacity="1"></stop></linearGradient></defs><defs><linearGradient id="grad2_2" x1="0%" y1="0%" x2="75%" y2="100%"><stop offset="23.333333333333336%" stop-color="#87a9fb" stop-opacity="1"></stop><stop offset="76.66666666666666%" stop-color="#e5e7eb" stop-opacity="1"></stop></linearGradient></defs><g transform="translate(900, 0)"><path d="M0 281.3C-22 278.9 -44 276.6 -60.3 264.2C-76.6 251.8 -87.2 229.4 -107.6 223.4C-128 217.5 -158.3 228.1 -175.4 219.9C-192.4 211.6 -196.2 184.6 -208 165.8C-219.7 147.1 -239.3 136.8 -250.5 120.6C-261.6 104.4 -264.4 82.3 -268.1 61.2C-271.8 40.1 -276.5 20.1 -281.2 0L0 0Z" fill="#b5c8f4"></path><path d="M0 187.5C-14.7 185.9 -29.3 184.4 -40.2 176.1C-51.1 167.9 -58.1 152.9 -71.7 149C-85.4 145 -105.5 152.1 -116.9 146.6C-128.3 141.1 -130.8 123 -138.6 110.6C-146.5 98.1 -159.5 91.2 -167 80.4C-174.4 69.6 -176.3 54.9 -178.7 40.8C-181.2 26.7 -184.4 13.4 -187.5 0L0 0Z" fill="#5688ff"></path><path d="M0 93.8C-7.3 93 -14.7 92.2 -20.1 88.1C-25.5 83.9 -29.1 76.5 -35.9 74.5C-42.7 72.5 -52.8 76 -58.5 73.3C-64.1 70.5 -65.4 61.5 -69.3 55.3C-73.2 49 -79.8 45.6 -83.5 40.2C-87.2 34.8 -88.1 27.4 -89.4 20.4C-90.6 13.4 -92.2 6.7 -93.7 0L0 0Z" fill="#0066ff"></path></g><g transform="translate(0, 675)"><path d="M0 -281.2C15.1 -255.5 30.3 -229.7 52.5 -230.1C74.8 -230.5 104.1 -257.1 121.5 -252.3C138.9 -247.4 144.2 -211 149 -186.9C153.8 -162.7 158 -150.9 181.4 -144.6C204.7 -138.4 247.2 -137.9 253.4 -122C259.6 -106.2 229.5 -75 228.1 -52.1C226.7 -29.2 254 -14.6 281.3 0L0 0Z" fill="#b5c8f4"></path><path d="M0 -187.5C10.1 -170.3 20.2 -153.1 35 -153.4C49.8 -153.7 69.4 -171.4 81 -168.2C92.6 -164.9 96.1 -140.7 99.3 -124.6C102.5 -108.5 105.4 -100.6 120.9 -96.4C136.5 -92.3 164.8 -91.9 168.9 -81.4C173.1 -70.8 153 -50 152.1 -34.7C151.2 -19.5 169.3 -9.7 187.5 0L0 0Z" fill="#5688ff"></path><path d="M0 -93.7C5 -85.2 10.1 -76.6 17.5 -76.7C24.9 -76.8 34.7 -85.7 40.5 -84.1C46.3 -82.5 48.1 -70.3 49.7 -62.3C51.3 -54.2 52.7 -50.3 60.5 -48.2C68.2 -46.1 82.4 -46 84.5 -40.7C86.5 -35.4 76.5 -25 76 -17.4C75.6 -9.7 84.7 -4.9 93.8 0L0 0Z" fill="#0066ff"></path></g></svg>