<svg id="visual" viewBox="0 0 900 600" width="900" height="600" xmlns="http://www.w3.org/2000/svg" xmlns:xlink="http://www.w3.org/1999/xlink" version="1.1"><rect x="0" y="0" width="900" height="600" fill="#111827"></rect><path d="M0 424L10 428.5C20 433 40 442 60 449.3C80 456.7 100 462.3 120 460C140 457.7 160 447.3 180 446C200 444.7 220 452.3 240 456.2C260 460 280 460 300 454.8C320 449.7 340 439.3 360 438.2C380 437 400 445 420 452.8C440 460.7 460 468.3 480 469.7C500 471 520 466 540 463C560 460 580 459 600 457.3C620 455.7 640 453.3 660 458.7C680 464 700 477 720 476.2C740 475.3 760 460.7 780 453.5C800 446.3 820 446.7 840 447.8C860 449 880 451 890 452L900 453L900 601L890 601C880 601 860 601 840 601C820 601 800 601 780 601C760 601 740 601 720 601C700 601 680 601 660 601C640 601 620 601 600 601C580 601 560 601 540 601C520 601 500 601 480 601C460 601 440 601 420 601C400 601 380 601 360 601C340 601 320 601 300 601C280 601 260 601 240 601C220 601 200 601 180 601C160 601 140 601 120 601C100 601 80 601 60 601C40 601 20 601 10 601L0 601Z" fill="#3e4c5f"></path><path d="M0 487L10 489.2C20 491.3 40 495.7 60 494.8C80 494 100 488 120 480.5C140 473 160 464 180 464.2C200 464.3 220 473.7 240 473.5C260 473.3 280 463.7 300 457.2C320 450.7 340 447.3 360 455C380 462.7 400 481.3 420 484.2C440 487 460 474 480 466.2C500 458.3 520 455.7 540 458.2C560 460.7 580 468.3 600 469.2C620 470 640 464 660 460.5C680 457 700 456 720 453.7C740 451.3 760 447.7 780 450C800 452.3 820 460.7 840 466.7C860 472.7 880 476.3 890 478.2L900 480L900 601L890 601C880 601 860 601 840 601C820 601 800 601 780 601C760 601 740 601 720 601C700 601 680 601 660 601C640 601 620 601 600 601C580 601 560 601 540 601C520 601 500 601 480 601C460 601 440 601 420 601C400 601 380 601 360 601C340 601 320 601 300 601C280 601 260 601 240 601C220 601 200 601 180 601C160 601 140 601 120 601C100 601 80 601 60 601C40 601 20 601 10 601L0 601Z" fill="#313e4f"></path><path d="M0 476L10 476.5C20 477 40 478 60 485.7C80 493.3 100 507.7 120 514.7C140 521.7 160 521.3 180 520.3C200 519.3 220 517.7 240 515.2C260 512.7 280 509.3 300 506.3C320 503.3 340 500.7 360 503.7C380 506.7 400 515.3 420 516.7C440 518 460 512 480 508.3C500 504.7 520 503.3 540 498.7C560 494 580 486 600 483C620 480 640 482 660 482C680 482 700 480 720 481C740 482 760 486 780 488.5C800 491 820 492 840 490.5C860 489 880 485 890 483L900 481L900 601L890 601C880 601 860 601 840 601C820 601 800 601 780 601C760 601 740 601 720 601C700 601 680 601 660 601C640 601 620 601 600 601C580 601 560 601 540 601C520 601 500 601 480 601C460 601 440 601 420 601C400 601 380 601 360 601C340 601 320 601 300 601C280 601 260 601 240 601C220 601 200 601 180 601C160 601 140 601 120 601C100 601 80 601 60 601C40 601 20 601 10 601L0 601Z" fill="#25303f"></path><path d="M0 530L10 530.2C20 530.3 40 530.7 60 529.5C80 528.3 100 525.7 120 522.5C140 519.3 160 515.7 180 515.7C200 515.7 220 519.3 240 523.3C260 527.3 280 531.7 300 533C320 534.3 340 532.7 360 529.3C380 526 400 521 420 516C440 511 460 506 480 505C500 504 520 507 540 508.7C560 510.3 580 510.7 600 511.2C620 511.7 640 512.3 660 513.7C680 515 700 517 720 521.2C740 525.3 760 531.7 780 531.5C800 531.3 820 524.7 840 518C860 511.3 880 504.7 890 501.3L900 498L900 601L890 601C880 601 860 601 840 601C820 601 800 601 780 601C760 601 740 601 720 601C700 601 680 601 660 601C640 601 620 601 600 601C580 601 560 601 540 601C520 601 500 601 480 601C460 601 440 601 420 601C400 601 380 601 360 601C340 601 320 601 300 601C280 601 260 601 240 601C220 601 200 601 180 601C160 601 140 601 120 601C100 601 80 601 60 601C40 601 20 601 10 601L0 601Z" fill="#1e2734"></path><path d="M0 547L10 547.2C20 547.3 40 547.7 60 549.5C80 551.3 100 554.7 120 555.3C140 556 160 554 180 550.2C200 546.3 220 540.7 240 537.5C260 534.3 280 533.7 300 533.3C320 533 340 533 360 537.3C380 541.7 400 550.3 420 549C440 547.7 460 536.3 480 531.5C500 526.7 520 528.3 540 529.5C560 530.7 580 531.3 600 534.7C620 538 640 544 660 545.3C680 546.7 700 543.3 720 540C740 536.7 760 533.3 780 534C800 534.7 820 539.3 840 539C860 538.7 880 533.3 890 530.7L900 528L900 601L890 601C880 601 860 601 840 601C820 601 800 601 780 601C760 601 740 601 720 601C700 601 680 601 660 601C640 601 620 601 600 601C580 601 560 601 540 601C520 601 500 601 480 601C460 601 440 601 420 601C400 601 380 601 360 601C340 601 320 601 300 601C280 601 260 601 240 601C220 601 200 601 180 601C160 601 140 601 120 601C100 601 80 601 60 601C40 601 20 601 10 601L0 601Z" fill="#1b232f"></path><path d="M0 557L10 556.3C20 555.7 40 554.3 60 556.5C80 558.7 100 564.3 120 567.7C140 571 160 572 180 570.5C200 569 220 565 240 563.5C260 562 280 563 300 562C320 561 340 558 360 557.7C380 557.3 400 559.7 420 560.7C440 561.7 460 561.3 480 561.5C500 561.7 520 562.3 540 561.3C560 560.3 580 557.7 600 559.7C620 561.7 640 568.3 660 568.3C680 568.3 700 561.7 720 558.3C740 555 760 555 780 556.2C800 557.3 820 559.7 840 560C860 560.3 880 558.7 890 557.8L900 557L900 601L890 601C880 601 860 601 840 601C820 601 800 601 780 601C760 601 740 601 720 601C700 601 680 601 660 601C640 601 620 601 600 601C580 601 560 601 540 601C520 601 500 601 480 601C460 601 440 601 420 601C400 601 380 601 360 601C340 601 320 601 300 601C280 601 260 601 240 601C220 601 200 601 180 601C160 601 140 601 120 601C100 601 80 601 60 601C40 601 20 601 10 601L0 601Z" fill="#191f29"></path></svg>