<svg id="visual" viewBox="0 0 900 600" width="900" height="600" xmlns="http://www.w3.org/2000/svg" xmlns:xlink="http://www.w3.org/1999/xlink" version="1.1"><rect x="0" y="0" width="900" height="600" fill="#111827"></rect><path d="M0 417L10.7 426.7C21.3 436.3 42.7 455.7 64.2 466.7C85.7 477.7 107.3 480.3 128.8 480.8C150.3 481.3 171.7 479.7 193 470.7C214.3 461.7 235.7 445.3 257 445C278.3 444.7 299.7 460.3 321.2 461.2C342.7 462 364.3 448 385.8 442.3C407.3 436.7 428.7 439.3 450 444.5C471.3 449.7 492.7 457.3 514.2 457.3C535.7 457.3 557.3 449.7 578.8 444C600.3 438.3 621.7 434.7 643 442.3C664.3 450 685.7 469 707 475.3C728.3 481.7 749.7 475.3 771.2 467.5C792.7 459.7 814.3 450.3 835.8 448.7C857.3 447 878.7 453 889.3 456L900 459L900 601L889.3 601C878.7 601 857.3 601 835.8 601C814.3 601 792.7 601 771.2 601C749.7 601 728.3 601 707 601C685.7 601 664.3 601 643 601C621.7 601 600.3 601 578.8 601C557.3 601 535.7 601 514.2 601C492.7 601 471.3 601 450 601C428.7 601 407.3 601 385.8 601C364.3 601 342.7 601 321.2 601C299.7 601 278.3 601 257 601C235.7 601 214.3 601 193 601C171.7 601 150.3 601 128.8 601C107.3 601 85.7 601 64.2 601C42.7 601 21.3 601 10.7 601L0 601Z" fill="#546274"></path><path d="M0 482L10.7 484.7C21.3 487.3 42.7 492.7 64.2 492.3C85.7 492 107.3 486 128.8 482.7C150.3 479.3 171.7 478.7 193 482.7C214.3 486.7 235.7 495.3 257 499C278.3 502.7 299.7 501.3 321.2 496.8C342.7 492.3 364.3 484.7 385.8 476.2C407.3 467.7 428.7 458.3 450 456.8C471.3 455.3 492.7 461.7 514.2 470.8C535.7 480 557.3 492 578.8 495C600.3 498 621.7 492 643 487C664.3 482 685.7 478 707 480.5C728.3 483 749.7 492 771.2 490.7C792.7 489.3 814.3 477.7 835.8 469.5C857.3 461.3 878.7 456.7 889.3 454.3L900 452L900 601L889.3 601C878.7 601 857.3 601 835.8 601C814.3 601 792.7 601 771.2 601C749.7 601 728.3 601 707 601C685.7 601 664.3 601 643 601C621.7 601 600.3 601 578.8 601C557.3 601 535.7 601 514.2 601C492.7 601 471.3 601 450 601C428.7 601 407.3 601 385.8 601C364.3 601 342.7 601 321.2 601C299.7 601 278.3 601 257 601C235.7 601 214.3 601 193 601C171.7 601 150.3 601 128.8 601C107.3 601 85.7 601 64.2 601C42.7 601 21.3 601 10.7 601L0 601Z" fill="#465365"></path><path d="M0 499L10.7 497.7C21.3 496.3 42.7 493.7 64.2 491.7C85.7 489.7 107.3 488.3 128.8 489.2C150.3 490 171.7 493 193 495.8C214.3 498.7 235.7 501.3 257 501.3C278.3 501.3 299.7 498.7 321.2 493C342.7 487.3 364.3 478.7 385.8 476C407.3 473.3 428.7 476.7 450 482.5C471.3 488.3 492.7 496.7 514.2 495.5C535.7 494.3 557.3 483.7 578.8 485.2C600.3 486.7 621.7 500.3 643 506.5C664.3 512.7 685.7 511.3 707 506.5C728.3 501.7 749.7 493.3 771.2 492.2C792.7 491 814.3 497 835.8 498C857.3 499 878.7 495 889.3 493L900 491L900 601L889.3 601C878.7 601 857.3 601 835.8 601C814.3 601 792.7 601 771.2 601C749.7 601 728.3 601 707 601C685.7 601 664.3 601 643 601C621.7 601 600.3 601 578.8 601C557.3 601 535.7 601 514.2 601C492.7 601 471.3 601 450 601C428.7 601 407.3 601 385.8 601C364.3 601 342.7 601 321.2 601C299.7 601 278.3 601 257 601C235.7 601 214.3 601 193 601C171.7 601 150.3 601 128.8 601C107.3 601 85.7 601 64.2 601C42.7 601 21.3 601 10.7 601L0 601Z" fill="#384556"></path><path d="M0 506L10.7 510.8C21.3 515.7 42.7 525.3 64.2 530.3C85.7 535.3 107.3 535.7 128.8 531C150.3 526.3 171.7 516.7 193 515.7C214.3 514.7 235.7 522.3 257 522.3C278.3 522.3 299.7 514.7 321.2 511.8C342.7 509 364.3 511 385.8 517C407.3 523 428.7 533 450 533.8C471.3 534.7 492.7 526.3 514.2 523.3C535.7 520.3 557.3 522.7 578.8 522.2C600.3 521.7 621.7 518.3 643 516.8C664.3 515.3 685.7 515.7 707 515C728.3 514.3 749.7 512.7 771.2 516.3C792.7 520 814.3 529 835.8 533.3C857.3 537.7 878.7 537.3 889.3 537.2L900 537L900 601L889.3 601C878.7 601 857.3 601 835.8 601C814.3 601 792.7 601 771.2 601C749.7 601 728.3 601 707 601C685.7 601 664.3 601 643 601C621.7 601 600.3 601 578.8 601C557.3 601 535.7 601 514.2 601C492.7 601 471.3 601 450 601C428.7 601 407.3 601 385.8 601C364.3 601 342.7 601 321.2 601C299.7 601 278.3 601 257 601C235.7 601 214.3 601 193 601C171.7 601 150.3 601 128.8 601C107.3 601 85.7 601 64.2 601C42.7 601 21.3 601 10.7 601L0 601Z" fill="#2f3b4b"></path><path d="M0 528L10.7 528.8C21.3 529.7 42.7 531.3 64.2 536.5C85.7 541.7 107.3 550.3 128.8 554C150.3 557.7 171.7 556.3 193 555.5C214.3 554.7 235.7 554.3 257 554.8C278.3 555.3 299.7 556.7 321.2 553.8C342.7 551 364.3 544 385.8 543.3C407.3 542.7 428.7 548.3 450 546.7C471.3 545 492.7 536 514.2 534.2C535.7 532.3 557.3 537.7 578.8 538.7C600.3 539.7 621.7 536.3 643 537.2C664.3 538 685.7 543 707 546.2C728.3 549.3 749.7 550.7 771.2 550.8C792.7 551 814.3 550 835.8 549C857.3 548 878.7 547 889.3 546.5L900 546L900 601L889.3 601C878.7 601 857.3 601 835.8 601C814.3 601 792.7 601 771.2 601C749.7 601 728.3 601 707 601C685.7 601 664.3 601 643 601C621.7 601 600.3 601 578.8 601C557.3 601 535.7 601 514.2 601C492.7 601 471.3 601 450 601C428.7 601 407.3 601 385.8 601C364.3 601 342.7 601 321.2 601C299.7 601 278.3 601 257 601C235.7 601 214.3 601 193 601C171.7 601 150.3 601 128.8 601C107.3 601 85.7 601 64.2 601C42.7 601 21.3 601 10.7 601L0 601Z" fill="#2a3442"></path><path d="M0 557L10.7 556.7C21.3 556.3 42.7 555.7 64.2 558.8C85.7 562 107.3 569 128.8 571.3C150.3 573.7 171.7 571.3 193 568C214.3 564.7 235.7 560.3 257 559.2C278.3 558 299.7 560 321.2 562.5C342.7 565 364.3 568 385.8 566.3C407.3 564.7 428.7 558.3 450 559.5C471.3 560.7 492.7 569.3 514.2 571C535.7 572.7 557.3 567.3 578.8 564C600.3 560.7 621.7 559.3 643 559.8C664.3 560.3 685.7 562.7 707 565.2C728.3 567.7 749.7 570.3 771.2 571C792.7 571.7 814.3 570.3 835.8 567.3C857.3 564.3 878.7 559.7 889.3 557.3L900 555L900 601L889.3 601C878.7 601 857.3 601 835.8 601C814.3 601 792.7 601 771.2 601C749.7 601 728.3 601 707 601C685.7 601 664.3 601 643 601C621.7 601 600.3 601 578.8 601C557.3 601 535.7 601 514.2 601C492.7 601 471.3 601 450 601C428.7 601 407.3 601 385.8 601C364.3 601 342.7 601 321.2 601C299.7 601 278.3 601 257 601C235.7 601 214.3 601 193 601C171.7 601 150.3 601 128.8 601C107.3 601 85.7 601 64.2 601C42.7 601 21.3 601 10.7 601L0 601Z" fill="#252e3a"></path></svg>