<svg id="visual" viewBox="0 0 900 600" width="900" height="600" xmlns="http://www.w3.org/2000/svg" xmlns:xlink="http://www.w3.org/1999/xlink" version="1.1"><rect x="0" y="0" width="900" height="600" fill="#111827"></rect><g transform="translate(397.92161259484874 330.9491196361613)"><path d="M302.8 -303.7C380.6 -295.6 423.7 -188.9 391.3 -108.2C358.8 -27.4 250.9 27.6 183.7 70.4C116.5 113.3 90 144 48.6 178.8C7.1 213.6 -49.5 252.5 -88.8 239.9C-128.1 227.4 -150.2 163.4 -193 104.2C-235.7 45 -299.1 -9.4 -298 -59C-296.9 -108.5 -231.4 -153.1 -171 -164.3C-110.6 -175.5 -55.3 -153.4 28.6 -187.5C112.5 -221.6 225 -311.9 302.8 -303.7" fill="#1f2937"></path></g></svg>